# xmcd CD database file
#
# Track frame offsets:
#	150
#	9927
#	22067
#	32527
#	42955
#	53382
#	61377
#	71907
#	82722
#	95895
#	107037
#	117204
#
# Disc length: 1615 seconds
#
# Revision: 1
# Processed by: cddbd v1.4PL0 Copyright (c) Steve Scherf et al.
# Submitted via: NotifyCDPlayer 1.60beta13
#
DISCID=91064d0c
DTITLE=Kristin Scott - Kristin Scott
DYEAR=1900
DGENRE=
TTITLE0=Shenandoah Breakdown
TTITLE1=Bye Bye Blues
TTITLE2=Follow the Leader
TTITLE3=The Last Date
TTITLE4=Roanoke
TTITLE5=White House Breakdown
TTITLE6=Charmaine
TTITLE7=Alabama Jubilee
TTITLE8=Clinch Mountain Backstep
TTITLE9=Danny Boy
TTITLE10=Ground Speed
TTITLE11=With Love to Laban
EXTD=Kristin Scott, Banjo\nBooie Beach, Guitar\nMatthew Alfred, Bass on 1, 4
EXTD=, 8, 9, 10 and 11 - Mandolin on 8 and 9\nWayne Benson, Mandolin on 2, 3, 5,
EXTD=and 7\nJason Carter, Fiddle on 3 and 5\nCharlie Cushman, Bass on 2, 3, 5, 
EXTD=& 7\nGail Rudisill, Fiddle on 6, 9, 10 and 11\nLarry Stephenson, Mandolin
EXTD=on 1, 4, 10 and 11
EXTT0=
EXTT1=
EXTT2=
EXTT3=
EXTT4=
EXTT5=
EXTT6=
EXTT7=
EXTT8=
EXTT9=
EXTT10=
EXTT11=
PLAYORDER=
